<svg width="50" height="50" viewBox="0 0 50 50" fill="none" xmlns="http://www.w3.org/2000/svg">
<path d="M35.9606 1.05028L12.0531 8.99559C-4.01769 14.3719 -4.01769 23.1382 12.0531 28.4881L19.1486 30.8452L21.5049 37.943C26.853 54.019 35.6429 54.019 40.991 37.943L48.9602 14.0541C52.5079 3.32793 46.6833 -2.52511 35.9606 1.05028V1.05028ZM36.8078 15.2989L26.7471 25.4159C26.3499 25.8132 25.8469 25.9985 25.3439 25.9985C24.8408 25.9985 24.3378 25.8132 23.9407 25.4159C23.5714 25.0421 23.3643 24.5378 23.3643 24.0122C23.3643 23.4867 23.5714 22.9823 23.9407 22.6086L34.0014 12.4915C34.7692 11.7235 36.0401 11.7235 36.8078 12.4915C37.5756 13.2596 37.5756 14.5308 36.8078 15.2989Z" fill="#06C3ED"/>
</svg>
